<svg xmlns="http://www.w3.org/2000/svg" width="187" height="60" viewBox="0 0 1000 250" version="1.1"><path d="M 137.314 11.950 C 135.561 13.019, 133.649 14.787, 133.064 15.881 C 132.332 17.247, 132 49.094, 132 117.799 C 132 217.624, 132.002 217.733, 134.088 220.385 C 135.237 221.845, 137.465 223.706, 139.039 224.520 C 141.553 225.820, 185.488 225.970, 500.200 225.753 L 858.500 225.505 499.500 225.003 C 213.693 224.603, 140.052 224.244, 138.301 223.242 C 132.694 220.034, 133 226.137, 133 117.677 L 133 17.800 136.400 14.400 L 139.800 11 500 11 L 860.200 11 863.600 14.400 L 867 17.800 867 117.466 C 867 185.983, 866.668 217.753, 865.936 219.119 C 865.351 220.213, 863.439 221.981, 861.686 223.050 C 859.934 224.118, 859.108 224.994, 859.850 224.996 C 860.593 224.998, 862.730 223.470, 864.600 221.600 L 868 218.200 868 118.550 C 868 9.144, 868.313 14.765, 862.033 11.517 C 859.427 10.169, 819.008 10, 499.800 10.004 C 145.793 10.007, 140.453 10.036, 137.314 11.950 M 403.667 14.667 C 403.300 15.033, 403 36.360, 403 62.060 C 403 103.746, 403.171 108.852, 404.582 109.393 C 405.452 109.727, 410.167 110, 415.060 110 L 423.957 110 424.228 90.750 L 424.500 71.500 439.728 71.224 L 454.957 70.948 455.228 90.224 L 455.500 109.500 466 109.500 L 476.500 109.500 477 100 C 477.486 90.769, 477.540 90.594, 478.895 93.808 C 480.895 98.548, 487.720 105.195, 493.516 108.047 C 497.847 110.179, 499.876 110.500, 509 110.500 C 518.458 110.500, 520.062 110.224, 525.161 107.720 C 528.274 106.191, 532.431 103.158, 534.399 100.980 L 537.977 97.020 542.238 101.661 C 544.582 104.214, 548.750 107.355, 551.500 108.642 C 560.688 112.939, 573.908 111.186, 580.750 104.764 L 583 102.651 583 106.362 L 583 110.072 592.750 109.786 L 602.500 109.500 602.765 79.750 L 603.030 50 593.015 50 L 583 50 583 53.155 C 583 56.109, 582.887 56.208, 581.232 54.710 C 575.493 49.517, 562.884 47.468, 553.616 50.224 C 549.647 51.404, 539.085 60.504, 537.626 64 C 537.070 65.333, 536.930 65.333, 536.371 64 C 536.025 63.175, 533.358 60.159, 530.443 57.299 C 526.408 53.339, 523.788 51.704, 519.468 50.448 C 511.410 48.105, 500.056 48.771, 493.516 51.968 C 487.728 54.798, 480.899 61.442, 478.895 66.192 C 477.641 69.165, 477.449 66.716, 477 42 L 476.500 14.500 466 14.500 L 455.500 14.500 455.228 33.250 L 454.956 52 439.478 52 L 424 52 424 33 L 424 14 414.167 14 C 408.758 14, 404.033 14.300, 403.667 14.667 M 708 62.034 L 708 110.068 718.750 109.784 L 729.500 109.500 730 80.572 L 730.500 51.644 749.038 80.572 L 767.576 109.500 778.038 109.500 L 788.500 109.500 788.760 61.750 L 789.019 14 778.525 14 L 768.030 14 767.765 43.750 L 767.500 73.500 749.610 45.500 C 739.770 30.100, 730.832 16.712, 729.749 15.750 C 728.155 14.334, 725.890 14, 717.889 14 L 708 14 708 62.034 M 656 38.934 L 656 49.937 648.218 49.337 C 639.549 48.669, 634.877 50.248, 630 55.495 L 627.500 58.185 627 54.342 L 626.500 50.500 616.500 50.500 L 606.500 50.500 606.500 80 L 606.500 109.500 616.500 109.500 L 626.500 109.500 627 91.500 C 627.565 71.163, 627.951 69.948, 634.658 67.386 C 638.443 65.941, 639.304 65.939, 644.143 67.357 C 648.791 68.720, 649.570 68.733, 650.283 67.459 C 650.732 66.656, 652.162 66, 653.460 66 L 655.821 66 656.160 81.281 C 656.472 95.296, 656.709 96.969, 659.025 101.464 C 663.305 109.773, 673.744 113.200, 685 109.991 C 691.320 108.189, 691.344 108.126, 688.837 99.607 L 686.569 91.897 682.956 92.507 C 677.119 93.494, 676.570 91.894, 676.855 74.750 L 677 66 683 66 L 689 66 689 58 L 689 50 683.034 50 L 677.068 50 676.784 39.250 L 676.500 28.500 666.250 28.215 L 656 27.930 656 38.934 M 255.128 42.963 C 223.445 52.017, 200.955 81.712, 201.017 114.410 C 201.034 123.230, 203.142 136.542, 204.781 138.181 C 205.226 138.626, 208.607 133.861, 212.295 127.594 C 217.406 118.907, 219.004 115.283, 219.015 112.349 C 219.074 96.942, 230.187 77.026, 243.732 68.054 C 246.898 65.957, 249.545 62.971, 251.994 58.734 C 259.457 45.817, 262.137 41.002, 261.823 41.071 C 261.646 41.110, 258.633 41.962, 255.128 42.963 M 272.725 45.250 C 257.050 72.269, 216.701 142.616, 216.343 143.548 C 216.034 144.354, 219.016 143.900, 225.188 142.200 C 233.469 139.918, 236.326 139.637, 251 139.661 C 265.642 139.684, 268.626 139.986, 277.500 142.347 C 302.331 148.953, 325.012 164.808, 338.875 185.250 L 342.096 190 352.048 190 C 357.522 190, 362 189.759, 362 189.464 C 362 188.951, 347.331 163.411, 298.697 79.250 C 286.540 58.212, 276.277 41, 275.892 41 C 275.506 41, 274.081 42.913, 272.725 45.250 M 291.160 43.362 C 291.771 44.538, 294.894 50, 298.099 55.500 C 302.728 63.444, 304.854 66.081, 308.440 68.327 C 320.842 76.095, 330.796 93.110, 332.527 109.503 C 333.175 115.637, 334.071 117.893, 339.790 127.793 C 343.378 134.004, 346.662 138.729, 347.086 138.293 C 347.511 137.857, 348.627 133.686, 349.566 129.025 C 354.113 106.446, 346.779 81.498, 330.512 64.206 C 319.835 52.857, 306.884 45.006, 294.097 42.133 C 290.171 41.251, 290.083 41.288, 291.160 43.362 M 500.525 65.275 C 498.586 67.214, 497 69.295, 497 69.900 C 497 70.846, 502.241 71.250, 514.500 71.250 C 519.807 71.250, 520.383 69.719, 516.691 65.427 C 514.902 63.347, 513.219 62.631, 509.216 62.247 C 504.350 61.779, 503.845 61.955, 500.525 65.275 M 563.270 67.483 C 553.520 71.721, 553.667 88.456, 563.490 92.560 C 567.996 94.443, 571.399 94.379, 575.717 92.330 C 580.344 90.134, 582.993 85.646, 582.993 80 C 582.993 69.495, 573.093 63.212, 563.270 67.483 M 497 85.577 C 497 89.064, 501.825 93.689, 506.350 94.538 C 511.365 95.479, 516.094 94.426, 520.608 91.362 L 524.418 88.777 530.836 91.942 C 535.848 94.413, 537.114 94.738, 536.610 93.425 C 536.254 92.500, 535.469 89.775, 534.863 87.371 L 533.763 83 515.381 83 L 497 83 497 85.577 M 266.750 100.276 C 261.938 108.668, 258 115.811, 258 116.150 C 258 116.489, 261.038 117.074, 264.750 117.449 C 272.727 118.254, 285.148 121.070, 293.414 123.947 C 296.667 125.079, 299.440 125.892, 299.576 125.753 C 299.713 125.614, 296.088 119.121, 291.521 111.325 C 286.955 103.529, 281.715 94.417, 279.878 91.075 C 278.041 87.734, 276.305 85.005, 276.019 85.010 C 275.734 85.016, 271.563 91.885, 266.750 100.276 M 502 143.235 L 502 173.470 499.900 169.485 C 494.515 159.266, 483.898 152.953, 470.827 152.196 C 466.367 151.938, 460.410 152.261, 457.459 152.922 C 450 154.591, 441.004 160.671, 437.117 166.670 L 433.939 171.574 429.063 166.873 C 425.690 163.622, 420.380 160.336, 411.843 156.215 C 398.073 149.568, 394.400 146.525, 395.390 142.583 C 397.300 134.971, 407.668 133.457, 419.762 139.024 L 426.025 141.906 430.012 133.975 C 432.206 129.613, 434 125.592, 434 125.039 C 434 124.486, 431.830 122.934, 429.179 121.591 C 416.350 115.090, 399.910 114.203, 390.199 119.488 C 379.195 125.477, 373.034 136.200, 374.327 147.113 C 375.522 157.200, 381.467 163.712, 396.232 171.105 C 412.724 179.363, 415.037 181.728, 412.826 188.070 C 410.546 194.611, 399.638 195.956, 389.143 190.991 C 385.646 189.337, 381.449 187.032, 379.816 185.869 C 378.182 184.706, 376.500 184.147, 376.078 184.627 C 375.655 185.107, 373.183 189.056, 370.584 193.402 C 366.026 201.025, 365.923 201.366, 367.679 203.072 C 368.681 204.045, 372.219 206.208, 375.542 207.879 C 396.546 218.440, 424.077 214.937, 432.953 200.575 L 435.188 196.960 438.135 201.028 C 447.097 213.399, 468.710 217.799, 484.800 210.529 C 491.568 207.471, 499.423 199.892, 500.761 195.129 C 501.259 193.358, 501.663 195.762, 502 202.500 L 502.500 212.500 512 212.500 L 521.500 212.500 521.759 162.750 L 522.019 113 512.009 113 L 502 113 502 143.235 M 627.235 120.423 C 623.848 123.528, 623.500 124.326, 623.500 129 C 623.500 133.674, 623.848 134.472, 627.235 137.577 C 630.027 140.135, 631.871 141, 634.535 141 C 641.715 141, 647 135.912, 647 129 C 647 122.088, 641.715 117, 634.535 117 C 631.871 117, 630.027 117.865, 627.235 120.423 M 593.700 131.633 C 593.315 132.018, 593 136.983, 593 142.667 L 593 153 580.595 153 L 568.191 153 567.824 171.250 C 567.396 192.549, 566.596 195.224, 560.129 196.965 C 555.093 198.321, 550.701 197.374, 547.820 194.311 C 545.601 191.952, 545.478 191.007, 545 172.672 L 544.500 153.500 534.178 153.214 L 523.857 152.928 524.178 174.290 L 524.500 195.651 527.521 201.554 C 530.153 206.696, 531.305 207.847, 536.451 210.479 C 542.167 213.402, 542.800 213.500, 555.929 213.500 C 568.484 213.500, 569.918 213.304, 575.091 210.878 C 585.110 206.180, 588 199.575, 588 181.374 L 588 169 590.391 169 L 592.782 169 593.215 183.750 C 593.705 200.462, 594.989 205.027, 600.582 209.938 C 605.071 213.879, 607.561 214.188, 627.500 213.277 L 644.500 212.500 644.786 202.127 L 645.073 191.753 647.604 196.832 C 652.746 207.151, 663.135 213.132, 677.098 213.812 C 690.620 214.470, 700.569 210.811, 707.870 202.495 C 709.677 200.438, 711.683 197.587, 712.328 196.161 C 713.352 193.896, 713.563 194.764, 714 203.034 L 714.500 212.500 724 212.500 L 733.500 212.500 734 194.500 C 734.528 175.505, 734.926 173.777, 739.629 170.078 C 742.606 167.735, 749.546 167.289, 752 169.282 C 756.271 172.751, 756.487 173.790, 757 193.400 L 757.500 212.500 767.250 212.786 C 776.640 213.062, 777 212.993, 777 210.929 C 777 209.265, 777.391 208.956, 778.750 209.546 C 787.621 213.401, 791.774 214.191, 801 213.780 C 816.267 213.101, 823.777 208.064, 825.479 197.363 C 826.946 188.144, 821.551 180.159, 811.404 176.529 C 798.954 172.075, 799.500 172.404, 799.500 169.361 C 799.500 166.700, 799.804 166.478, 803.844 166.188 C 806.233 166.016, 810.250 166.579, 812.772 167.438 C 815.293 168.297, 817.643 169, 817.994 169 C 818.345 169, 819.943 166.257, 821.546 162.904 C 824.337 157.063, 824.382 156.753, 822.619 155.464 C 818.328 152.326, 801.522 150.894, 793.882 153.016 C 785.487 155.348, 779.966 161.296, 779.247 168.785 C 778.363 177.983, 783.395 183.943, 796.489 189.207 C 803.081 191.857, 805.086 194.048, 803.394 196.750 C 801.450 199.852, 795.696 199.488, 788.830 195.829 C 785.433 194.018, 782.505 192.979, 782.323 193.519 C 782.141 194.058, 780.981 196.075, 779.746 198 L 777.500 201.500 777 183.339 L 776.500 165.179 773.449 161.339 C 768.580 155.213, 762.099 152.500, 752.332 152.500 C 744.728 152.500, 743.844 152.725, 739.552 155.750 C 737.016 157.537, 734.730 159, 734.471 159 C 734.212 159, 734 157.650, 734 156 L 734 153 724 153 L 714 153 713.999 163.250 L 713.998 173.500 711.914 169.290 C 709.225 163.856, 703.196 158.453, 696.120 155.135 C 691.115 152.789, 689.295 152.500, 679.500 152.500 C 669.392 152.500, 668.022 152.735, 662.606 155.394 C 655.587 158.841, 649.533 164.613, 646.933 170.339 L 645.044 174.500 645.022 163.750 L 645 153 629.534 153 L 614.068 153 613.784 142.250 L 613.500 131.500 603.950 131.216 C 598.698 131.060, 594.086 131.248, 593.700 131.633 M 239.500 150.637 C 230.738 152.031, 219.559 155.255, 212.952 158.294 L 205.500 161.722 197.750 175.247 C 193.488 182.686, 190 189.049, 190 189.386 C 190 189.724, 193.039 190, 196.753 190 C 202.906 190, 203.951 189.681, 208.503 186.415 C 234.121 168.036, 268.755 168.120, 294.134 186.622 L 298.768 190 313.384 190 C 321.423 190, 328 189.645, 328 189.211 C 328 187.590, 314.752 173.982, 308.738 169.425 C 300.376 163.088, 284.427 155.556, 274 153.019 C 265.678 150.994, 245.858 149.625, 239.500 150.637 M 461.062 170.827 C 454.849 174.159, 452.378 182.182, 455.364 189.328 C 458.845 197.660, 471.510 199.408, 478.040 192.457 C 481.398 188.883, 481.921 179.791, 479.033 175.190 C 475.382 169.371, 467.393 167.431, 461.062 170.827 M 614.015 180.750 C 614.024 187.213, 614.451 193.164, 614.964 193.976 C 615.559 194.917, 617.546 195.460, 620.449 195.476 L 625 195.500 625 182.250 L 625 169 619.500 169 L 614 169 614.015 180.750 M 673.062 170.827 C 666.849 174.159, 664.378 182.182, 667.364 189.328 C 670.845 197.660, 683.510 199.408, 690.040 192.457 C 693.398 188.883, 693.921 179.791, 691.033 175.190 C 687.382 169.371, 679.393 167.431, 673.062 170.827" stroke="none" fill="#fafafb" fill-rule="evenodd"/><path d="M 136.400 14.400 L 133 17.800 133 117.677 C 133 227.479, 132.586 220.183, 139.011 223.506 C 141.559 224.823, 184.254 225, 500 225 C 815.746 225, 858.441 224.823, 860.989 223.506 C 867.414 220.183, 867 227.479, 867 117.677 L 867 17.800 863.600 14.400 L 860.200 11 500 11 L 139.800 11 136.400 14.400 M 403.667 14.667 C 403.300 15.033, 403 36.360, 403 62.060 C 403 103.746, 403.171 108.852, 404.582 109.393 C 405.452 109.727, 410.167 110, 415.060 110 L 423.957 110 424.228 90.750 L 424.500 71.500 439.728 71.224 L 454.957 70.948 455.228 90.224 L 455.500 109.500 466 109.500 L 476.500 109.500 477 100 C 477.486 90.769, 477.540 90.594, 478.895 93.808 C 480.895 98.548, 487.720 105.195, 493.516 108.047 C 497.847 110.179, 499.876 110.500, 509 110.500 C 518.458 110.500, 520.062 110.224, 525.161 107.720 C 528.274 106.191, 532.431 103.158, 534.399 100.980 L 537.977 97.020 542.238 101.661 C 544.582 104.214, 548.750 107.355, 551.500 108.642 C 560.688 112.939, 573.908 111.186, 580.750 104.764 L 583 102.651 583 106.362 L 583 110.072 592.750 109.786 L 602.500 109.500 602.765 79.750 L 603.030 50 593.015 50 L 583 50 583 53.155 C 583 56.109, 582.887 56.208, 581.232 54.710 C 575.493 49.517, 562.884 47.468, 553.616 50.224 C 549.647 51.404, 539.085 60.504, 537.626 64 C 537.070 65.333, 536.930 65.333, 536.371 64 C 536.025 63.175, 533.358 60.159, 530.443 57.299 C 526.408 53.339, 523.788 51.704, 519.468 50.448 C 511.410 48.105, 500.056 48.771, 493.516 51.968 C 487.728 54.798, 480.899 61.442, 478.895 66.192 C 477.641 69.165, 477.449 66.716, 477 42 L 476.500 14.500 466 14.500 L 455.500 14.500 455.228 33.250 L 454.956 52 439.478 52 L 424 52 424 33 L 424 14 414.167 14 C 408.758 14, 404.033 14.300, 403.667 14.667 M 708 62.034 L 708 110.068 718.750 109.784 L 729.500 109.500 730 80.572 L 730.500 51.644 749.038 80.572 L 767.576 109.500 778.038 109.500 L 788.500 109.500 788.760 61.750 L 789.019 14 778.525 14 L 768.030 14 767.765 43.750 L 767.500 73.500 749.610 45.500 C 739.770 30.100, 730.832 16.712, 729.749 15.750 C 728.155 14.334, 725.890 14, 717.889 14 L 708 14 708 62.034 M 656 38.934 L 656 49.937 648.218 49.337 C 639.549 48.669, 634.877 50.248, 630 55.495 L 627.500 58.185 627 54.342 L 626.500 50.500 616.500 50.500 L 606.500 50.500 606.500 80 L 606.500 109.500 616.500 109.500 L 626.500 109.500 627 91.500 C 627.565 71.163, 627.951 69.948, 634.658 67.386 C 638.443 65.941, 639.304 65.939, 644.143 67.357 C 648.791 68.720, 649.570 68.733, 650.283 67.459 C 650.732 66.656, 652.162 66, 653.460 66 L 655.821 66 656.160 81.281 C 656.472 95.296, 656.709 96.969, 659.025 101.464 C 663.305 109.773, 673.744 113.200, 685 109.991 C 691.320 108.189, 691.344 108.126, 688.837 99.607 L 686.569 91.897 682.956 92.507 C 677.119 93.494, 676.570 91.894, 676.855 74.750 L 677 66 683 66 L 689 66 689 58 L 689 50 683.034 50 L 677.068 50 676.784 39.250 L 676.500 28.500 666.250 28.215 L 656 27.930 656 38.934 M 255.128 42.963 C 223.445 52.017, 200.955 81.712, 201.017 114.410 C 201.034 123.230, 203.142 136.542, 204.781 138.181 C 205.226 138.626, 208.607 133.861, 212.295 127.594 C 217.406 118.907, 219.004 115.283, 219.015 112.349 C 219.074 96.942, 230.187 77.026, 243.732 68.054 C 246.898 65.957, 249.545 62.971, 251.994 58.734 C 259.457 45.817, 262.137 41.002, 261.823 41.071 C 261.646 41.110, 258.633 41.962, 255.128 42.963 M 272.725 45.250 C 257.050 72.269, 216.701 142.616, 216.343 143.548 C 216.034 144.354, 219.016 143.900, 225.188 142.200 C 233.469 139.918, 236.326 139.637, 251 139.661 C 265.642 139.684, 268.626 139.986, 277.500 142.347 C 302.331 148.953, 325.012 164.808, 338.875 185.250 L 342.096 190 352.048 190 C 357.522 190, 362 189.759, 362 189.464 C 362 188.951, 347.331 163.411, 298.697 79.250 C 286.540 58.212, 276.277 41, 275.892 41 C 275.506 41, 274.081 42.913, 272.725 45.250 M 291.160 43.362 C 291.771 44.538, 294.894 50, 298.099 55.500 C 302.728 63.444, 304.854 66.081, 308.440 68.327 C 320.842 76.095, 330.796 93.110, 332.527 109.503 C 333.175 115.637, 334.071 117.893, 339.790 127.793 C 343.378 134.004, 346.662 138.729, 347.086 138.293 C 347.511 137.857, 348.627 133.686, 349.566 129.025 C 354.113 106.446, 346.779 81.498, 330.512 64.206 C 319.835 52.857, 306.884 45.006, 294.097 42.133 C 290.171 41.251, 290.083 41.288, 291.160 43.362 M 500.525 65.275 C 498.586 67.214, 497 69.295, 497 69.900 C 497 70.846, 502.241 71.250, 514.500 71.250 C 519.807 71.250, 520.383 69.719, 516.691 65.427 C 514.902 63.347, 513.219 62.631, 509.216 62.247 C 504.350 61.779, 503.845 61.955, 500.525 65.275 M 563.270 67.483 C 553.520 71.721, 553.667 88.456, 563.490 92.560 C 567.996 94.443, 571.399 94.379, 575.717 92.330 C 580.344 90.134, 582.993 85.646, 582.993 80 C 582.993 69.495, 573.093 63.212, 563.270 67.483 M 497 85.577 C 497 89.064, 501.825 93.689, 506.350 94.538 C 511.365 95.479, 516.094 94.426, 520.608 91.362 L 524.418 88.777 530.836 91.942 C 535.848 94.413, 537.114 94.738, 536.610 93.425 C 536.254 92.500, 535.469 89.775, 534.863 87.371 L 533.763 83 515.381 83 L 497 83 497 85.577 M 266.750 100.276 C 261.938 108.668, 258 115.811, 258 116.150 C 258 116.489, 261.038 117.074, 264.750 117.449 C 272.727 118.254, 285.148 121.070, 293.414 123.947 C 296.667 125.079, 299.440 125.892, 299.576 125.753 C 299.713 125.614, 296.088 119.121, 291.521 111.325 C 286.955 103.529, 281.715 94.417, 279.878 91.075 C 278.041 87.734, 276.305 85.005, 276.019 85.010 C 275.734 85.016, 271.563 91.885, 266.750 100.276 M 502 143.235 L 502 173.470 499.900 169.485 C 494.515 159.266, 483.898 152.953, 470.827 152.196 C 466.367 151.938, 460.410 152.261, 457.459 152.922 C 450 154.591, 441.004 160.671, 437.117 166.670 L 433.939 171.574 429.063 166.873 C 425.690 163.622, 420.380 160.336, 411.843 156.215 C 398.073 149.568, 394.400 146.525, 395.390 142.583 C 397.300 134.971, 407.668 133.457, 419.762 139.024 L 426.025 141.906 430.012 133.975 C 432.206 129.613, 434 125.592, 434 125.039 C 434 124.486, 431.830 122.934, 429.179 121.591 C 416.350 115.090, 399.910 114.203, 390.199 119.488 C 379.195 125.477, 373.034 136.200, 374.327 147.113 C 375.522 157.200, 381.467 163.712, 396.232 171.105 C 412.724 179.363, 415.037 181.728, 412.826 188.070 C 410.546 194.611, 399.638 195.956, 389.143 190.991 C 385.646 189.337, 381.449 187.032, 379.816 185.869 C 378.182 184.706, 376.500 184.147, 376.078 184.627 C 375.655 185.107, 373.183 189.056, 370.584 193.402 C 366.026 201.025, 365.923 201.366, 367.679 203.072 C 368.681 204.045, 372.219 206.208, 375.542 207.879 C 396.546 218.440, 424.077 214.937, 432.953 200.575 L 435.188 196.960 438.135 201.028 C 447.097 213.399, 468.710 217.799, 484.800 210.529 C 491.568 207.471, 499.423 199.892, 500.761 195.129 C 501.259 193.358, 501.663 195.762, 502 202.500 L 502.500 212.500 512 212.500 L 521.500 212.500 521.759 162.750 L 522.019 113 512.009 113 L 502 113 502 143.235 M 627.235 120.423 C 623.848 123.528, 623.500 124.326, 623.500 129 C 623.500 133.674, 623.848 134.472, 627.235 137.577 C 630.027 140.135, 631.871 141, 634.535 141 C 641.715 141, 647 135.912, 647 129 C 647 122.088, 641.715 117, 634.535 117 C 631.871 117, 630.027 117.865, 627.235 120.423 M 593.700 131.633 C 593.315 132.018, 593 136.983, 593 142.667 L 593 153 580.595 153 L 568.191 153 567.824 171.250 C 567.396 192.549, 566.596 195.224, 560.129 196.965 C 555.093 198.321, 550.701 197.374, 547.820 194.311 C 545.601 191.952, 545.478 191.007, 545 172.672 L 544.500 153.500 534.178 153.214 L 523.857 152.928 524.178 174.290 L 524.500 195.651 527.521 201.554 C 530.153 206.696, 531.305 207.847, 536.451 210.479 C 542.167 213.402, 542.800 213.500, 555.929 213.500 C 568.484 213.500, 569.918 213.304, 575.091 210.878 C 585.110 206.180, 588 199.575, 588 181.374 L 588 169 590.391 169 L 592.782 169 593.215 183.750 C 593.705 200.462, 594.989 205.027, 600.582 209.938 C 605.071 213.879, 607.561 214.188, 627.500 213.277 L 644.500 212.500 644.786 202.127 L 645.073 191.753 647.604 196.832 C 652.746 207.151, 663.135 213.132, 677.098 213.812 C 690.620 214.470, 700.569 210.811, 707.870 202.495 C 709.677 200.438, 711.683 197.587, 712.328 196.161 C 713.352 193.896, 713.563 194.764, 714 203.034 L 714.500 212.500 724 212.500 L 733.500 212.500 734 194.500 C 734.528 175.505, 734.926 173.777, 739.629 170.078 C 742.606 167.735, 749.546 167.289, 752 169.282 C 756.271 172.751, 756.487 173.790, 757 193.400 L 757.500 212.500 767.250 212.786 C 776.640 213.062, 777 212.993, 777 210.929 C 777 209.265, 777.391 208.956, 778.750 209.546 C 787.621 213.401, 791.774 214.191, 801 213.780 C 816.267 213.101, 823.777 208.064, 825.479 197.363 C 826.946 188.144, 821.551 180.159, 811.404 176.529 C 798.954 172.075, 799.500 172.404, 799.500 169.361 C 799.500 166.700, 799.804 166.478, 803.844 166.188 C 806.233 166.016, 810.250 166.579, 812.772 167.438 C 815.293 168.297, 817.643 169, 817.994 169 C 818.345 169, 819.943 166.257, 821.546 162.904 C 824.337 157.063, 824.382 156.753, 822.619 155.464 C 818.328 152.326, 801.522 150.894, 793.882 153.016 C 785.487 155.348, 779.966 161.296, 779.247 168.785 C 778.363 177.983, 783.395 183.943, 796.489 189.207 C 803.081 191.857, 805.086 194.048, 803.394 196.750 C 801.450 199.852, 795.696 199.488, 788.830 195.829 C 785.433 194.018, 782.505 192.979, 782.323 193.519 C 782.141 194.058, 780.981 196.075, 779.746 198 L 777.500 201.500 777 183.339 L 776.500 165.179 773.449 161.339 C 768.580 155.213, 762.099 152.500, 752.332 152.500 C 744.728 152.500, 743.844 152.725, 739.552 155.750 C 737.016 157.537, 734.730 159, 734.471 159 C 734.212 159, 734 157.650, 734 156 L 734 153 724 153 L 714 153 713.999 163.250 L 713.998 173.500 711.914 169.290 C 709.225 163.856, 703.196 158.453, 696.120 155.135 C 691.115 152.789, 689.295 152.500, 679.500 152.500 C 669.392 152.500, 668.022 152.735, 662.606 155.394 C 655.587 158.841, 649.533 164.613, 646.933 170.339 L 645.044 174.500 645.022 163.750 L 645 153 629.534 153 L 614.068 153 613.784 142.250 L 613.500 131.500 603.950 131.216 C 598.698 131.060, 594.086 131.248, 593.700 131.633 M 239.500 150.637 C 230.738 152.031, 219.559 155.255, 212.952 158.294 L 205.500 161.722 197.750 175.247 C 193.488 182.686, 190 189.049, 190 189.386 C 190 189.724, 193.039 190, 196.753 190 C 202.906 190, 203.951 189.681, 208.503 186.415 C 234.121 168.036, 268.755 168.120, 294.134 186.622 L 298.768 190 313.384 190 C 321.423 190, 328 189.645, 328 189.211 C 328 187.590, 314.752 173.982, 308.738 169.425 C 300.376 163.088, 284.427 155.556, 274 153.019 C 265.678 150.994, 245.858 149.625, 239.500 150.637 M 461.062 170.827 C 454.849 174.159, 452.378 182.182, 455.364 189.328 C 458.845 197.660, 471.510 199.408, 478.040 192.457 C 481.398 188.883, 481.921 179.791, 479.033 175.190 C 475.382 169.371, 467.393 167.431, 461.062 170.827 M 614.015 180.750 C 614.024 187.213, 614.451 193.164, 614.964 193.976 C 615.559 194.917, 617.546 195.460, 620.449 195.476 L 625 195.500 625 182.250 L 625 169 619.500 169 L 614 169 614.015 180.750 M 673.062 170.827 C 666.849 174.159, 664.378 182.182, 667.364 189.328 C 670.845 197.660, 683.510 199.408, 690.040 192.457 C 693.398 188.883, 693.921 179.791, 691.033 175.190 C 687.382 169.371, 679.393 167.431, 673.062 170.827" stroke="none" fill="#5c56e8" fill-rule="evenodd"/></svg>